<mxfile host="app.diagrams.net" modified="2023-06-10T10:43:05.518Z" agent="5.0 (Macintosh; Intel Mac OS X 10_15_7) AppleWebKit/537.36 (KHTML, like Gecko) Chrome/114.0.0.0 Safari/537.36" etag="7ZFYLmF2gSyKkozR7gnz" version="15.0.6" type="github">
  <diagram id="1T02eesxhD1087KPEWg6" name="Page-1">
    <mxGraphModel dx="474" dy="275" grid="1" gridSize="10" guides="1" tooltips="1" connect="1" arrows="1" fold="1" page="1" pageScale="1" pageWidth="850" pageHeight="1100" math="0" shadow="0">
      <root>
        <mxCell id="0" />
        <mxCell id="1" parent="0" />
        <mxCell id="eag13FPDZMQsbQJUMplU-1" value="" style="ellipse;whiteSpace=wrap;html=1;aspect=fixed;" vertex="1" parent="1">
          <mxGeometry x="180" y="110" width="470" height="470" as="geometry" />
        </mxCell>
        <mxCell id="eag13FPDZMQsbQJUMplU-2" value="" style="ellipse;whiteSpace=wrap;html=1;aspect=fixed;" vertex="1" parent="1">
          <mxGeometry x="287.5" y="210" width="255" height="255" as="geometry" />
        </mxCell>
        <mxCell id="eag13FPDZMQsbQJUMplU-4" value="" style="rounded=0;whiteSpace=wrap;html=1;fillColor=#006600;" vertex="1" parent="1">
          <mxGeometry x="405" y="292.5" width="20" height="90" as="geometry" />
        </mxCell>
      </root>
    </mxGraphModel>
  </diagram>
</mxfile>
